<svg
  xmlns="http://www.w3.org/2000/svg"
  viewBox="0 -70 660.77 185"
  opacity="0">

  <animate
    id="showAnimate"
    attributeType="CSS"
    attributeName="opacity"
    to="1"
    dur="100ms"
    fill="freeze"
  />

  <path
    d="M2.66,92V8H16.1V42.2H53.3V8H66.74V92H53.3V58.64H16.1V92H2.66Z"
    transform="translate(-2.16 -85.5)"
    fill="none"
    stroke="currentColor"
    opacity="0"
  >
    <set
      id="showS1"
      attributeName="opacity"
      to="1"
      fill="freeze"
      begin="showAnimate.begin"
    />

    <animateTransform
      id="s1ToBottom"
      attributeName="transform"
      type="translate"
      values="-2.16 -85.5; -2.16 5.5; -2.16 -3.5; -2.16 -1.5"
      dur="1000ms"
      keyTimes="0; 0.5; 0.9; 1"
      keySplines="0.11 0 0.5 0; 0 0.5 0.5 1; 0.5 0 1 0.5"
      calcMode="spline"
      fill="freeze"
      begin="showS1.begin"
    />

    <animate
      attributeName="stroke-dasharray"
      from="0 156"
      to="156 0"
      dur="600ms"
      fill="freeze"
      begin="s1ToBottom.begin"
    />
  </path>
  <path
    d="M147.62,8V24.44H97V41.6h33.6V58H97V75.56h50.64V92H83.54V8h64.08Z"
    transform="translate(-2.16 -85.5)"
    fill="none"
    stroke="currentColor"
    opacity="0"
  >
    <!-- transform="translate(-2.16 -1.5)" -->
    <set
      id="showS2"
      attributeName="opacity"
      to="1"
      fill="freeze"
      begin="showS1.begin + 50ms"
    />

    <animateTransform
      id="s2ToBottom"
      attributeName="transform"
      type="translate"
      values="-2.16 -85.5; -2.16 5.5; -2.16 -3.5; -2.16 -1.5"
      dur="1000ms"
      keyTimes="0; 0.5; 0.9; 1"
      keySplines="0.5 0 1 0.5; 0 0.5 0.5 1; 0.5 0 1 0.5"
      calcMode="spline"
      fill="freeze"
      begin="showS2.begin"
    />

    <animate
      attributeName="stroke-dasharray"
      from="0 156"
      to="156 0"
      dur="600ms"
      fill="freeze"
      begin="s2ToBottom.begin"
    />
  </path>

  <path
    d="M199.22,8l20.52,42.36L235.34,8h16.44l-31,84H204.38l9.48-25.92L185.78,8h13.44Z"
    transform="translate(-2.16 -85.5)"
    fill="none"
    stroke="currentColor"
    opacity="0"
  >
    <set
      id="showS3"
      attributeName="opacity"
      to="1"
      fill="freeze"
      begin="showS2.begin + 50ms"
    />

    <animateTransform
      id="s3ToBottom"
      attributeName="transform"
      type="translate"
      values="-2.16 -85.5; -2.16 5.5; -2.16 -3.5; -2.16 -1.5"
      dur="1000ms"
      keyTimes="0; 0.5; 0.9; 1"
      keySplines="0.5 0 1 0.5; 0 0.5 0.5 1; 0.5 0 1 0.5"
      calcMode="spline"
      fill="freeze"
      begin="showS3.begin"
    />

    <animate
      attributeName="stroke-dasharray"
      from="0 156"
      to="156 0"
      dur="600ms"
      fill="freeze"
      begin="s3ToBottom.begin"
    />
  </path>

  <path
    d="M273.74,24.44V92H260.3V8h50.16V24.44H273.74Z"
    transform="translate(-2.16 -85.5)"
    fill="none"
    stroke="currentColor"
    opacity="0"
  >
    <set
      id="showS4"
      attributeName="opacity"
      to="1"
      fill="freeze"
      begin="showS3.begin + 50ms"
    />

    <animateTransform
      id="s4ToBottom"
      attributeName="transform"
      type="translate"
      values="-2.16 -85.5; -2.16 5.5; -2.16 -3.5; -2.16 -1.5"
      dur="1000ms"
      keyTimes="0; 0.5; 0.9; 1"
      keySplines="0.5 0 1 0.5; 0 0.5 0.5 1; 0.5 0 1 0.5"
      calcMode="spline"
      fill="freeze"
      begin="showS4.begin"
    />

    <animate
      attributeName="stroke-dasharray"
      from="0 156"
      to="156 0"
      dur="600ms"
      fill="freeze"
      begin="s4ToBottom.begin"
    />
  </path>

  <path
    d="M307.1,92l28-84h27.12l28.08,84H376.82L369,68.48h-37.8L323.42,92H307.1Zm56.64-40L350.3,11.84,336.86,52h26.88Z"
    transform="translate(-2.16 -85.5)"
    fill="none"
    stroke="currentColor"
    opacity="0"
  >
    <set
      id="showS5"
      attributeName="opacity"
      to="1"
      fill="freeze"
      begin="showS4.begin + 50ms"
    />

    <animateTransform
      id="s5ToBottom"
      attributeName="transform"
      type="translate"
      values="-2.16 -85.5; -2.16 5.5; -2.16 -3.5; -2.16 -1.5"
      dur="1000ms"
      keyTimes="0; 0.5; 0.9; 1"
      keySplines="0.5 0 1 0.5; 0 0.5 0.5 1; 0.5 0 1 0.5"
      calcMode="spline"
      fill="freeze"
      begin="showS5.begin"
    />

    <animate
      attributeName="stroke-dasharray"
      from="0 156"
      to="156 0"
      dur="600ms"
      fill="freeze"
      begin="s5ToBottom.begin"
    />
  </path>

  <path
    d="M396.38,110.24V75.56h7.44c4.56-4.68,7.8-18.36,8.76-56L412.94,8h48.6V75.56h10v34.68H456.86V92H411v18.24H396.38ZM448.1,75.56V24.44H425.54v3.12c-0.48,22.44-3.24,37.68-7.2,48H448.1Z"
    transform="translate(-2.16 -85.5)"
    fill="none"
    stroke="currentColor"
    opacity="0"
  >
    <set
      id="showS6"
      attributeName="opacity"
      to="1"
      fill="freeze"
      begin="showS5.begin + 50ms"
    />

    <animateTransform
      id="s6ToBottom"
      attributeName="transform"
      type="translate"
      values="-2.16 -85.5; -2.16 5.5; -2.16 -3.5; -2.16 -1.5"
      dur="1000ms"
      keyTimes="0; 0.5; 0.9; 1"
      keySplines="0.5 0 1 0.5; 0 0.5 0.5 1; 0.5 0 1 0.5"
      calcMode="spline"
      fill="freeze"
      begin="showS6.begin"
    />

    <animate
      attributeName="stroke-dasharray"
      from="0 156"
      to="156 0"
      dur="600ms"
      fill="freeze"
      begin="s6ToBottom.begin"
    />
  </path>

  <path
    d="M477.74,92l28-84h27.12L560.9,92H547.46l-7.8-23.52h-37.8L494.06,92H477.74Zm56.64-40-13.44-40.2L507.5,52h26.88Z"
    transform="translate(-2.16 -85.5)"
    fill="none"
    stroke="currentColor"
    opacity="0"
  >
    <set
      id="showS7"
      attributeName="opacity"
      to="1"
      fill="freeze"
      begin="showS6.begin + 50ms"
    />

    <animateTransform
      id="s7ToBottom"
      attributeName="transform"
      type="translate"
      values="-2.16 -85.5; -2.16 5.5; -2.16 -3.5; -2.16 -1.5"
      dur="1000ms"
      keyTimes="0; 0.5; 0.9; 1"
      keySplines="0.5 0 1 0.5; 0 0.5 0.5 1; 0.5 0 1 0.5"
      calcMode="spline"
      fill="freeze"
      begin="showS7.begin"
    />

    <animate
      attributeName="stroke-dasharray"
      from="0 156"
      to="156 0"
      dur="600ms"
      fill="freeze"
      begin="s7ToBottom.begin"
    />
  </path>
  <path
    d="M568.7,76.88a13.77,13.77,0,0,0,5,1c6.6,0,10.44-6.24,12-58.32L586.22,8h46.2V92H619V24.44H598.82l-0.12,3.12C597.14,81,589,94.4,573.74,94.4a28.55,28.55,0,0,1-6.72-.84Z"
    transform="translate(-2.16 -85.5)"
    fill="none"
    stroke="currentColor"
    opacity="0"
  >
    <set
      id="showS8"
      attributeName="opacity"
      to="1"
      fill="freeze"
      begin="showS7.begin + 50ms"
    />

    <animateTransform
      id="s8ToBottom"
      attributeName="transform"
      type="translate"
      values="-2.16 -85.5; -2.16 5.5; -2.16 -3.5; -2.16 -1.5"
      dur="1000ms"
      keyTimes="0; 0.5; 0.9; 1"
      keySplines="0.5 0 1 0.5; 0 0.5 0.5 1; 0.5 0 1 0.5"
      calcMode="spline"
      fill="freeze"
      begin="showS8.begin"
    />

    <animate
      attributeName="stroke-dasharray"
      from="0 156"
      to="156 0"
      dur="600ms"
      fill="freeze"
      begin="s8ToBottom.begin"
    />
  </path>

  <path
    d="M646.1,70.4L647.54,2H661l1.44,68.4H646.1Zm8.28,6.36c4.8,0,8,3.24,8,8.16a8,8,0,0,1-16.08,0C646.34,80,649.58,76.76,654.38,76.76Z"
    transform="translate(-2.16 -85.5)"
    fill="none"
    stroke="currentColor"
    opacity="0"
  >
    <set
      id="showS9"
      attributeName="opacity"
      to="1"
      fill="freeze"
      begin="showS8.begin + 50ms"
    />

    <animateTransform
      id="s9ToBottom"
      attributeName="transform"
      type="translate"
      values="-2.16 -85.5; -2.16 5.5; -2.16 -3.5; -2.16 -1.5"
      dur="1000ms"
      keyTimes="0; 0.5; 0.9; 1"
      keySplines="0.5 0 1 0.5; 0 0.5 0.5 1; 0.5 0 1 0.5"
      calcMode="spline"
      fill="freeze"
      begin="showS9.begin"
    />

    <animate
      attributeName="stroke-dasharray"
      from="0 156"
      to="156 0"
      dur="600ms"
      fill="freeze"
      begin="s9ToBottom.begin"
    />
  </path>
</svg>
